<svg width="24" height="24" viewBox="0 0 24 24" fill="none" xmlns="http://www.w3.org/2000/svg">
<path opacity="0.4" fill-rule="evenodd" clip-rule="evenodd" d="M16.2858 2H19.5524C20.9039 2 22.0003 3.1059 22.0003 4.47018V7.7641C22.0003 9.12735 20.9039 10.2343 19.5524 10.2343H16.2858C14.9333 10.2343 13.8369 9.12735 13.8369 7.7641V4.47018C13.8369 3.1059 14.9333 2 16.2858 2Z" stroke="#4DC591" stroke-width="1.5" stroke-linecap="round" stroke-linejoin="round"/>
<path fill-rule="evenodd" clip-rule="evenodd" d="M4.44892 2H7.71449C9.06703 2 10.1634 3.1059 10.1634 4.47018V7.7641C10.1634 9.12735 9.06703 10.2343 7.71449 10.2343H4.44892C3.09638 10.2343 2 9.12735 2 7.7641V4.47018C2 3.1059 3.09638 2 4.44892 2Z" stroke="#4DC591" stroke-width="1.5" stroke-linecap="round" stroke-linejoin="round"/>
<path fill-rule="evenodd" clip-rule="evenodd" d="M4.44892 13.7657H7.71449C9.06703 13.7657 10.1634 14.8716 10.1634 16.237V19.5299C10.1634 20.8941 9.06703 22 7.71449 22H4.44892C3.09638 22 2 20.8941 2 19.5299V16.237C2 14.8716 3.09638 13.7657 4.44892 13.7657Z" stroke="#4DC591" stroke-width="1.5" stroke-linecap="round" stroke-linejoin="round"/>
<path fill-rule="evenodd" clip-rule="evenodd" d="M16.2858 13.7657H19.5524C20.9039 13.7657 22.0003 14.8716 22.0003 16.237V19.5299C22.0003 20.8941 20.9039 22 19.5524 22H16.2858C14.9333 22 13.8369 20.8941 13.8369 19.5299V16.237C13.8369 14.8716 14.9333 13.7657 16.2858 13.7657Z" stroke="#4DC591" stroke-width="1.5" stroke-linecap="round" stroke-linejoin="round"/>
</svg>
